<svg viewBox="0 0 29 22" fill="none" xmlns="http://www.w3.org/2000/svg">
<path fill-rule="evenodd" clip-rule="evenodd" d="M0.486375 3.89099L3.587 5.89728C4.52935 4.31657 5.77568 3.28302 7.78198 3.28302C9.84906 3.28302 10.9434 4.40776 10.9434 5.83648V6.20126L4.89413 6.87002C2.09749 7.17401 0.182391 8.81552 0.182391 11.217C0.182391 14.1048 2.43187 15.9287 5.83648 15.9287C9.0891 15.9287 10.2138 14.348 10.5786 13.6793H11.0042V15.5032H14.7736V12.8601C16.0538 14.4749 17.9367 15.4424 20.0021 15.4424C22.6771 15.4424 24.0147 14.1656 24.805 12.8889H25.1698V17.327C25.1698 17.935 24.8658 18.239 24.3186 18.239H14.5912L0 18.239V21.5828H14.8952L26.021 21.5828C27.7233 21.5828 29 20.3669 29 18.6646V0.425577H25.2306V2.55346H24.805C24.0147 1.27673 22.6771 0 20.0021 0C17.6274 0 15.4941 1.27884 14.2404 3.35009C13.2665 1.27072 11.0185 0 7.99476 0C4.31657 0 2.27988 1.64151 0.486375 3.89099ZM4.19497 11.0042C4.19497 10.1226 4.89413 9.60588 6.32285 9.42349L10.9434 8.87631V9.1195C10.9434 11.1866 9.45388 12.7673 6.77883 12.7673C5.07652 12.7673 4.19497 12.0377 4.19497 11.0042ZM21.0356 12.0377C18.7254 12.0377 16.9015 10.5178 16.9015 7.72118C16.9015 4.92453 18.7254 3.40461 21.0356 3.40461C23.4067 3.40461 25.1698 4.98533 25.1698 7.72118C25.1698 10.457 23.4067 12.0377 21.0356 12.0377Z" fill="url(#paint0_linear)"/>
<defs>
<linearGradient id="paint0_linear" x1="-1.93564e-07" y1="10.9434" x2="28.8784" y2="10.9434" gradientUnits="userSpaceOnUse">
<stop stop-color="#3600D0"/>
<stop offset="1" stop-color="#00DFD2"/>
</linearGradient>
</defs>
</svg>
