<svg xmlns="http://www.w3.org/2000/svg" fill="none" viewBox="0 0 115 30"><defs></defs><path fill="#fff" d="M46.634 9.568h-4.576l-3.23 11.161h-.165L35.425 9.568h-4.567l5.451 15.596h4.873l5.452-15.596zm8.783 15.901c3.857 0 6.453-1.877 7.063-4.771l-3.996-.266c-.438 1.189-1.557 1.807-2.996 1.807-2.159 0-3.535-1.432-3.535-3.755v-.008h10.613v-1.188c0-5.304-3.206-7.924-7.328-7.924-4.592 0-7.564 3.262-7.564 8.072.008 4.951 2.941 8.033 7.743 8.033zm-3.457-9.675c.094-1.776 1.44-3.2 3.364-3.2 1.877 0 3.175 1.338 3.183 3.2H51.96zm13.438 9.37h4.325V16.34c0-1.916 1.4-3.238 3.309-3.238.602 0 1.423.102 1.83.235v-3.84a6.31 6.31 0 00-1.36-.15c-1.745 0-3.176 1.017-3.747 2.95h-.165V9.574h-4.192v15.589zm11.772 0h4.262v-2.495h.196c.602 1.298 1.908 2.753 4.427 2.753 3.551 0 6.32-2.816 6.32-8.033 0-5.365-2.894-8.025-6.312-8.025-2.605 0-3.856 1.557-4.435 2.824h-.133V4.366H77.17v20.798zm4.231-7.798c0-2.785 1.181-4.56 3.277-4.56 2.144 0 3.278 1.861 3.278 4.56 0 2.722-1.158 4.607-3.278 4.607-2.08.008-3.277-1.823-3.277-4.607zm20.9 8.103c4.732 0 7.673-3.238 7.673-8.04 0-4.834-2.941-8.065-7.673-8.065-4.733 0-7.674 3.23-7.674 8.064 0 4.803 2.95 8.041 7.674 8.041zm.023-3.348c-2.182 0-3.3-2.002-3.3-4.724 0-2.722 1.118-4.732 3.3-4.732 2.143 0 3.254 2.01 3.254 4.732 0 2.722-1.111 4.724-3.254 4.724zM4.102 12.157L1.067 16.13a.707.707 0 00-.086.211c-.007.023-.007.047-.007.07 0 .047 0 .094.007.141a.603.603 0 00.165.305.14.14 0 00.054.04c.04.023.079.046.126.062a.457.457 0 00.148.024h6.907L7.02 21.824l-.36 1.29-.696 2.48-.055.203-.876 3.106c0 .023-.008.039-.008.062v.016c0 .008 0 .031.008.039.008.016 0 .008 0 .016.008.015.008.03.016.047.008.015.015.03.031.047l.008.007c.008.008.015.016.031.024l.008.008.047.023c.016.008.031.016.047.016h.117a.111.111 0 00.047-.016l.016-.008.031-.023.016-.008c.015-.016.03-.031.039-.047l2.018-2.644 1.47-1.916 1.103-1.44 7.141-9.346c.016-.031.04-.055.047-.086.016-.04.031-.078.04-.125.007-.047.015-.094.007-.141a.501.501 0 00-.063-.235.578.578 0 00-.156-.18.158.158 0 00-.063-.03.49.49 0 00-.21-.048H9.913l3.34-11.912V.925c0-.016 0-.032-.008-.04V.87c-.008-.016-.008-.031-.016-.047s-.016-.031-.031-.04L13.19.777 13.16.752c-.008 0-.008-.007-.008-.007L13.105.72c-.016-.008-.031-.008-.047-.015h-.07c-.016 0-.032 0-.047.007-.016.008-.032.008-.047.016l-.008-.016-.031.024-.016.008c-.016.015-.031.031-.039.047l-2.612 3.41-1.964 2.573-4.122 5.381z"></path></svg>